<?xml version="1.0" encoding="UTF-8" standalone="no"?>
<!-- Created with Inkscape (http://www.inkscape.org/) -->

<svg
   xmlns:dc="http://purl.org/dc/elements/1.1/"
   xmlns:cc="http://creativecommons.org/ns#"
   xmlns:rdf="http://www.w3.org/1999/02/22-rdf-syntax-ns#"
   xmlns:svg="http://www.w3.org/2000/svg"
   xmlns="http://www.w3.org/2000/svg"
   xmlns:sodipodi="http://sodipodi.sourceforge.net/DTD/sodipodi-0.dtd"
   xmlns:inkscape="http://www.inkscape.org/namespaces/inkscape"
   width="744.09448819"
   height="1052.3622047"
   id="svg2"
   version="1.1"
   inkscape:version="0.48.2 r9819"
   sodipodi:docname="New document 1">
  <defs
     id="defs4">
    <clipPath
       id="clipPath3018"
       clipPathUnits="userSpaceOnUse">
      <path
         id="path3020"
         d="M 0,31 88,31 88,0 0,0 0,31 z" />
    </clipPath>
  </defs>
  <sodipodi:namedview
     id="base"
     pagecolor="#ffffff"
     bordercolor="#666666"
     borderopacity="1.0"
     inkscape:pageopacity="0.0"
     inkscape:pageshadow="2"
     inkscape:zoom="7.9195959"
     inkscape:cx="371.95329"
     inkscape:cy="521.66007"
     inkscape:document-units="px"
     inkscape:current-layer="layer1"
     showgrid="true"
     inkscape:snap-bbox="true"
     inkscape:snap-nodes="false"
     inkscape:window-width="978"
     inkscape:window-height="690"
     inkscape:window-x="0"
     inkscape:window-y="0"
     inkscape:window-maximized="0">
    <inkscape:grid
       type="xygrid"
       id="grid3072" />
  </sodipodi:namedview>
  <metadata
     id="metadata7">
    <rdf:RDF>
      <cc:Work
         rdf:about="">
        <dc:format>image/svg+xml</dc:format>
        <dc:type
           rdf:resource="http://purl.org/dc/dcmitype/StillImage" />
        <dc:title></dc:title>
      </cc:Work>
    </rdf:RDF>
  </metadata>
  <g
     inkscape:label="Layer 1"
     inkscape:groupmode="layer"
     id="layer1">
    <rect
       style="fill:none;fill-opacity:1;stroke:none"
       id="rect3076"
       width="35"
       height="35"
       x="354.54724"
       y="517.36218" />
    <g
       id="g3066"
       transform="matrix(1.0877588,0,0,1.0877588,7.9787219,-44.219484)">
      <g
         transform="matrix(1.25,0,0,-1.25,346.61975,519.51781)"
         id="g3026">
        <path
           id="path3028"
           style="fill:#6862a7;fill-opacity:1;fill-rule:evenodd;stroke:none"
           d="m 0,0 c 0,0.968 -0.785,1.754 -1.754,1.754 l -15.57,0 c -0.967,0 -1.754,-0.786 -1.754,-1.754 l 0,-20.551 c 0,-0.969 0.787,-1.754 1.754,-1.754 l 15.57,0 c 0.969,0 1.754,0.785 1.754,1.754 L 0,0 z m -1.613,-23.146 -15.852,0 c -1.355,0 -2.455,1.1 -2.455,2.456 l 0,20.83 c 0,1.356 1.1,2.455 2.455,2.455 l 15.852,0 c 1.357,0 2.455,-1.099 2.455,-2.455 l 0,-20.83 c 0,-1.356 -1.098,-2.456 -2.455,-2.456"
           inkscape:connector-curvature="0" />
      </g>
      <g
         transform="matrix(1.25,0,0,-1.25,327.79163,543.99968)"
         id="g3030">
        <path
           id="path3032"
           style="fill:#6862a7;fill-opacity:1;fill-rule:nonzero;stroke:none"
           d="M 0,0 0,5.821 2.91,2.911 0,0 z m 9.801,14.991 -3.069,0 c 1.108,1.35 2.106,3.665 2.106,3.665 l 3.174,0 c 0,0 -0.543,-1.509 -2.211,-3.665 m -1.647,-15.009 0,10.223 c 0,0 0.664,2.445 -8.191,-1.002 -0.016,-0.043 -0.016,9.453 -0.016,9.453 l 2.893,0.017 0,-6.084 c 0,0 8.103,3.191 8.103,-2.42 l 0,-10.187 -2.789,0 z"
           inkscape:connector-curvature="0" />
      </g>
    </g>
  </g>
</svg>
